<svg xmlns="http://www.w3.org/2000/svg" xmlns:xlink="http://www.w3.org/1999/xlink" width="569" height="340" viewBox="0 0 569 340">
    <defs>
        <path id="a" d="M0 340h630.376V.566H0z"/>
        <path id="c" d="M0 45.03l70.23 118.85 70.29-96.11L44.38.829z"/>
        <path id="e" d="M0 45.03l70.23 118.85 70.29-96.11L44.38.829z"/>
        <path id="g" d="M0 45.03l70.23 118.85 70.29-96.11L44.38.829z"/>
    </defs>
    <g fill="none" fill-rule="evenodd">
        <g transform="translate(-62 -.566)">
            <path stroke="#FFF" stroke-width="13.55" d="M168.71 110.47v-40c.005-5.684 4.606-10.293 10.29-10.31h379.1c5.695.005 10.31 4.624 10.31 10.32v40"/>
            <mask id="b" fill="#fff">
                <use xlink:href="#a"/>
            </mask>
            <path fill="#FFF" d="M202.8 97.2h22.23V81.72H202.8zM237.25 97.2h22.23V81.72h-22.23z" mask="url(#b)"/>
            <path fill="#FFF" d="M503.84 313.83c-38.556 0-69.81-31.255-69.81-69.81 0-38.555 31.254-69.81 69.81-69.81 38.555 0 69.81 31.255 69.81 69.81 0 38.554-31.255 69.81-69.81 69.81zm-85.64-40.95a3.23 3.23 0 0 1-3.23 3.23h-91.29a3.23 3.23 0 0 1-3.23-3.23v-54.19a3.23 3.23 0 0 1 3.23-3.23H415a3.23 3.23 0 0 1 3.23 3.23l-.03 54.19zM233.31 313.8c-38.555.005-69.815-31.245-69.82-69.8-.006-38.555 31.245-69.815 69.8-69.82 38.554-.006 69.814 31.245 69.82 69.8v.01c.022 38.55-31.21 69.818-69.76 69.84h-.03l-.01-.03zM203 161.86h331.14V108.8H203v53.06zM592.74 93.3H144.42a5.438 5.438 0 0 0-5.42 5.43v225.83a5.451 5.451 0 0 0 5.44 5.44h29.73v10h43.27v-10h302.3v10H563v-10h29.73a5.44 5.44 0 0 0 5.43-5.44V98.73a5.428 5.428 0 0 0-5.42-5.43z" mask="url(#b)"/>
            <path fill="#FFF" d="M503.84 218.99c13.823 0 25.03 11.207 25.03 25.03 0 13.824-11.207 25.03-25.03 25.03-13.824 0-25.03-11.206-25.03-25.03 0-13.823 11.206-25.03 25.03-25.03M233.31 218.99c13.824 0 25.03 11.207 25.03 25.03 0 13.824-11.206 25.03-25.03 25.03-13.824 0-25.03-11.206-25.03-25.03 0-13.823 11.206-25.03 25.03-25.03" mask="url(#b)"/>
            <path stroke="#FFF" stroke-width="6.71" d="M566.78 36.94l9.01-35.55M585.32 49.24l34.81-33.65M591.85 67.48l37.52-11.79" mask="url(#b)"/>
        </g>
        <g transform="translate(-62 174.434)">
            <mask id="d" fill="#fff">
                <use xlink:href="#c"/>
            </mask>
            <path stroke="#FFF" stroke-linecap="round" stroke-linejoin="round" stroke-width="6.71" d="M142.07 21.25c27.377 0 49.57 22.192 49.57 49.57 0 27.376-22.193 49.57-49.57 49.57-27.376 0-49.57-22.194-49.57-49.57 0-27.378 22.194-49.57 49.57-49.57z" mask="url(#d)"/>
        </g>
        <g transform="translate(-62 174.434)">
            <mask id="f" fill="#fff">
                <use xlink:href="#e"/>
            </mask>
            <path stroke="#FFF" stroke-linecap="round" stroke-linejoin="round" stroke-width="6.71" d="M142.07 48.23c12.476 0 22.59 10.114 22.59 22.59 0 12.476-10.114 22.59-22.59 22.59-12.476 0-22.59-10.114-22.59-22.59 0-12.476 10.114-22.59 22.59-22.59z" mask="url(#f)"/>
        </g>
        <g transform="translate(-62 174.434)">
            <mask id="h" fill="#fff">
                <use xlink:href="#g"/>
            </mask>
            <path stroke="#FFF" stroke-linecap="round" stroke-linejoin="round" stroke-width="6.71" d="M142.07-5.19c41.979 0 76.01 34.031 76.01 76.01 0 41.979-34.031 76.01-76.01 76.01-41.98 0-76.01-34.031-76.01-76.01 0-41.979 34.03-76.01 76.01-76.01z" mask="url(#h)"/>
        </g>
        <g fill="#FFF">
            <path d="M299.72 252.013h15.2v-8.729h-15.2zM330.23 243.324a4.34 4.34 0 1 1-.001 8.681 4.34 4.34 0 0 1 .001-8.68M284.42 243.634a4.34 4.34 0 1 1 0 8.68 4.34 4.34 0 0 1 0-8.68"/>
        </g>
    </g>
</svg>
